<mxfile host="app.diagrams.net" modified="2022-04-13T05:59:00.815Z" agent="5.0 (Windows NT 10.0; Win64; x64) AppleWebKit/537.36 (KHTML, like Gecko) Chrome/100.0.4896.75 Safari/537.36 Edg/100.0.1185.36" etag="SghBsk0ygbfNAgE_RQ9H" version="17.4.3" type="github">
  <diagram id="4pgphjGkWuZej-gJ_Yt5" name="Page-1">
    <mxGraphModel dx="1597" dy="878" grid="1" gridSize="10" guides="1" tooltips="1" connect="1" arrows="1" fold="1" page="1" pageScale="1" pageWidth="850" pageHeight="1100" math="0" shadow="0">
      <root>
        <mxCell id="0" />
        <mxCell id="1" parent="0" />
        <mxCell id="Euc7uqUimYMy-SIVhz5D-6" style="edgeStyle=orthogonalEdgeStyle;rounded=0;orthogonalLoop=1;jettySize=auto;html=1;exitX=0.5;exitY=1;exitDx=0;exitDy=0;fontSize=15;strokeWidth=2;" edge="1" parent="1" source="Euc7uqUimYMy-SIVhz5D-1" target="Euc7uqUimYMy-SIVhz5D-4">
          <mxGeometry relative="1" as="geometry" />
        </mxCell>
        <mxCell id="Euc7uqUimYMy-SIVhz5D-1" value="&lt;b&gt;&lt;font style=&quot;font-size: 15px&quot;&gt;START&lt;/font&gt;&lt;/b&gt;" style="ellipse;whiteSpace=wrap;html=1;strokeWidth=2;fillColor=#dae8fc;strokeColor=#000000;gradientColor=#7ea6e0;" vertex="1" parent="1">
          <mxGeometry x="340" y="30" width="120" height="80" as="geometry" />
        </mxCell>
        <mxCell id="Euc7uqUimYMy-SIVhz5D-7" style="edgeStyle=orthogonalEdgeStyle;rounded=0;orthogonalLoop=1;jettySize=auto;html=1;exitX=0.5;exitY=1;exitDx=0;exitDy=0;entryX=0.5;entryY=0;entryDx=0;entryDy=0;fontSize=15;strokeWidth=2;" edge="1" parent="1" source="Euc7uqUimYMy-SIVhz5D-4" target="Euc7uqUimYMy-SIVhz5D-5">
          <mxGeometry relative="1" as="geometry" />
        </mxCell>
        <mxCell id="Euc7uqUimYMy-SIVhz5D-39" style="edgeStyle=orthogonalEdgeStyle;rounded=0;orthogonalLoop=1;jettySize=auto;html=1;exitX=0;exitY=0.5;exitDx=0;exitDy=0;fontSize=12;strokeWidth=2;" edge="1" parent="1" source="Euc7uqUimYMy-SIVhz5D-4">
          <mxGeometry relative="1" as="geometry">
            <mxPoint x="230" y="220.39130434782612" as="targetPoint" />
          </mxGeometry>
        </mxCell>
        <mxCell id="Euc7uqUimYMy-SIVhz5D-4" value="&lt;b&gt;Sign-Up&lt;/b&gt;" style="rhombus;whiteSpace=wrap;html=1;fontSize=15;strokeColor=#000000;strokeWidth=2;fillColor=#d5e8d4;gradientColor=#97d077;" vertex="1" parent="1">
          <mxGeometry x="345" y="170" width="110" height="100" as="geometry" />
        </mxCell>
        <mxCell id="Euc7uqUimYMy-SIVhz5D-40" style="edgeStyle=orthogonalEdgeStyle;rounded=0;orthogonalLoop=1;jettySize=auto;html=1;exitX=1;exitY=0.5;exitDx=0;exitDy=0;fontSize=12;strokeWidth=2;" edge="1" parent="1" source="Euc7uqUimYMy-SIVhz5D-5">
          <mxGeometry relative="1" as="geometry">
            <mxPoint x="560" y="380.3913043478261" as="targetPoint" />
          </mxGeometry>
        </mxCell>
        <mxCell id="Euc7uqUimYMy-SIVhz5D-5" value="&lt;b&gt;Sign-In&lt;/b&gt;" style="rhombus;whiteSpace=wrap;html=1;fontSize=15;strokeColor=#000000;strokeWidth=2;fillColor=#d5e8d4;gradientColor=#97d077;" vertex="1" parent="1">
          <mxGeometry x="345" y="330" width="110" height="100" as="geometry" />
        </mxCell>
        <mxCell id="Euc7uqUimYMy-SIVhz5D-13" style="edgeStyle=orthogonalEdgeStyle;rounded=0;orthogonalLoop=1;jettySize=auto;html=1;exitX=0.5;exitY=1;exitDx=0;exitDy=0;entryX=0.5;entryY=0;entryDx=0;entryDy=0;fontSize=15;strokeWidth=2;" edge="1" parent="1" source="Euc7uqUimYMy-SIVhz5D-8" target="Euc7uqUimYMy-SIVhz5D-9">
          <mxGeometry relative="1" as="geometry" />
        </mxCell>
        <mxCell id="Euc7uqUimYMy-SIVhz5D-8" value="&lt;font style=&quot;font-size: 13px&quot;&gt;&lt;b&gt;Enter User name&lt;/b&gt;&lt;/font&gt;" style="rounded=0;whiteSpace=wrap;html=1;fontSize=15;strokeColor=default;strokeWidth=2;fillColor=#fad7ac;" vertex="1" parent="1">
          <mxGeometry x="80" y="120" width="120" height="60" as="geometry" />
        </mxCell>
        <mxCell id="Euc7uqUimYMy-SIVhz5D-14" style="edgeStyle=orthogonalEdgeStyle;rounded=0;orthogonalLoop=1;jettySize=auto;html=1;exitX=0.5;exitY=1;exitDx=0;exitDy=0;entryX=0.5;entryY=0;entryDx=0;entryDy=0;fontSize=15;strokeWidth=2;" edge="1" parent="1" source="Euc7uqUimYMy-SIVhz5D-9" target="Euc7uqUimYMy-SIVhz5D-10">
          <mxGeometry relative="1" as="geometry" />
        </mxCell>
        <mxCell id="Euc7uqUimYMy-SIVhz5D-9" value="&lt;font style=&quot;font-size: 13px&quot;&gt;&lt;b&gt;Enter mobile number&lt;/b&gt;&lt;/font&gt;" style="rounded=0;whiteSpace=wrap;html=1;fontSize=15;strokeColor=default;strokeWidth=2;fillColor=#fad7ac;" vertex="1" parent="1">
          <mxGeometry x="80" y="230" width="120" height="60" as="geometry" />
        </mxCell>
        <mxCell id="Euc7uqUimYMy-SIVhz5D-15" style="edgeStyle=orthogonalEdgeStyle;rounded=0;orthogonalLoop=1;jettySize=auto;html=1;exitX=0.5;exitY=1;exitDx=0;exitDy=0;entryX=0.5;entryY=0;entryDx=0;entryDy=0;fontSize=15;strokeWidth=2;" edge="1" parent="1" source="Euc7uqUimYMy-SIVhz5D-10" target="Euc7uqUimYMy-SIVhz5D-11">
          <mxGeometry relative="1" as="geometry" />
        </mxCell>
        <mxCell id="Euc7uqUimYMy-SIVhz5D-10" value="&lt;b&gt;&lt;font style=&quot;font-size: 13px&quot;&gt;Enter password&lt;/font&gt;&lt;/b&gt;" style="rounded=0;whiteSpace=wrap;html=1;fontSize=15;strokeColor=default;strokeWidth=2;fillColor=#fad7ac;" vertex="1" parent="1">
          <mxGeometry x="80" y="340" width="120" height="60" as="geometry" />
        </mxCell>
        <mxCell id="Euc7uqUimYMy-SIVhz5D-16" style="edgeStyle=orthogonalEdgeStyle;rounded=0;orthogonalLoop=1;jettySize=auto;html=1;exitX=0.5;exitY=1;exitDx=0;exitDy=0;fontSize=15;strokeWidth=2;" edge="1" parent="1" source="Euc7uqUimYMy-SIVhz5D-11" target="Euc7uqUimYMy-SIVhz5D-12">
          <mxGeometry relative="1" as="geometry" />
        </mxCell>
        <mxCell id="Euc7uqUimYMy-SIVhz5D-11" value="&lt;b&gt;&lt;font style=&quot;font-size: 13px&quot;&gt;Enter pancard number&lt;/font&gt;&lt;/b&gt;" style="rounded=0;whiteSpace=wrap;html=1;fontSize=15;strokeColor=default;strokeWidth=2;fillColor=#fad7ac;" vertex="1" parent="1">
          <mxGeometry x="80" y="450" width="120" height="60" as="geometry" />
        </mxCell>
        <mxCell id="Euc7uqUimYMy-SIVhz5D-12" value="&lt;font style=&quot;font-size: 13px&quot;&gt;&lt;b&gt;Successfully created&lt;/b&gt;&lt;/font&gt;" style="rounded=0;whiteSpace=wrap;html=1;fontSize=15;strokeColor=default;strokeWidth=2;fillColor=#fad7ac;" vertex="1" parent="1">
          <mxGeometry x="80" y="560" width="120" height="60" as="geometry" />
        </mxCell>
        <mxCell id="Euc7uqUimYMy-SIVhz5D-24" style="edgeStyle=orthogonalEdgeStyle;rounded=0;orthogonalLoop=1;jettySize=auto;html=1;exitX=0.5;exitY=1;exitDx=0;exitDy=0;entryX=0.5;entryY=0;entryDx=0;entryDy=0;fontSize=13;strokeWidth=2;" edge="1" parent="1" source="Euc7uqUimYMy-SIVhz5D-17" target="Euc7uqUimYMy-SIVhz5D-18">
          <mxGeometry relative="1" as="geometry" />
        </mxCell>
        <mxCell id="Euc7uqUimYMy-SIVhz5D-17" value="&lt;b&gt;&lt;font style=&quot;font-size: 13px&quot;&gt;Enter User name&lt;/font&gt;&lt;/b&gt;" style="rounded=0;whiteSpace=wrap;html=1;fontSize=15;strokeColor=#000000;strokeWidth=2;fillColor=#fad7ac;" vertex="1" parent="1">
          <mxGeometry x="610" y="120" width="120" height="60" as="geometry" />
        </mxCell>
        <mxCell id="Euc7uqUimYMy-SIVhz5D-25" style="edgeStyle=orthogonalEdgeStyle;rounded=0;orthogonalLoop=1;jettySize=auto;html=1;exitX=0.5;exitY=1;exitDx=0;exitDy=0;fontSize=13;strokeWidth=2;" edge="1" parent="1" source="Euc7uqUimYMy-SIVhz5D-18" target="Euc7uqUimYMy-SIVhz5D-19">
          <mxGeometry relative="1" as="geometry" />
        </mxCell>
        <mxCell id="Euc7uqUimYMy-SIVhz5D-18" value="&lt;b&gt;&lt;font style=&quot;font-size: 13px&quot;&gt;Enter mobile number&lt;/font&gt;&lt;/b&gt;" style="rounded=0;whiteSpace=wrap;html=1;fontSize=15;strokeColor=#000000;strokeWidth=2;fillColor=#fad7ac;" vertex="1" parent="1">
          <mxGeometry x="610" y="230" width="120" height="60" as="geometry" />
        </mxCell>
        <mxCell id="Euc7uqUimYMy-SIVhz5D-26" style="edgeStyle=orthogonalEdgeStyle;rounded=0;orthogonalLoop=1;jettySize=auto;html=1;exitX=0.5;exitY=1;exitDx=0;exitDy=0;entryX=0.5;entryY=0;entryDx=0;entryDy=0;fontSize=13;strokeWidth=2;" edge="1" parent="1" source="Euc7uqUimYMy-SIVhz5D-19" target="Euc7uqUimYMy-SIVhz5D-20">
          <mxGeometry relative="1" as="geometry" />
        </mxCell>
        <mxCell id="Euc7uqUimYMy-SIVhz5D-19" value="&lt;b&gt;&lt;font style=&quot;font-size: 13px&quot;&gt;Enter password&lt;/font&gt;&lt;/b&gt;" style="rounded=0;whiteSpace=wrap;html=1;fontSize=15;strokeColor=#000000;strokeWidth=2;fillColor=#fad7ac;" vertex="1" parent="1">
          <mxGeometry x="610" y="340" width="120" height="60" as="geometry" />
        </mxCell>
        <mxCell id="Euc7uqUimYMy-SIVhz5D-27" style="edgeStyle=orthogonalEdgeStyle;rounded=0;orthogonalLoop=1;jettySize=auto;html=1;exitX=0.5;exitY=1;exitDx=0;exitDy=0;entryX=0.5;entryY=0;entryDx=0;entryDy=0;fontSize=13;strokeWidth=2;" edge="1" parent="1" source="Euc7uqUimYMy-SIVhz5D-20" target="Euc7uqUimYMy-SIVhz5D-21">
          <mxGeometry relative="1" as="geometry" />
        </mxCell>
        <mxCell id="Euc7uqUimYMy-SIVhz5D-20" value="&lt;b&gt;&lt;font style=&quot;font-size: 12px&quot;&gt;Successfully Sign-In&lt;/font&gt;&lt;/b&gt;" style="rounded=0;whiteSpace=wrap;html=1;fontSize=15;strokeColor=#000000;strokeWidth=2;fillColor=#fad7ac;" vertex="1" parent="1">
          <mxGeometry x="610" y="450" width="120" height="60" as="geometry" />
        </mxCell>
        <mxCell id="Euc7uqUimYMy-SIVhz5D-28" style="edgeStyle=orthogonalEdgeStyle;rounded=0;orthogonalLoop=1;jettySize=auto;html=1;exitX=0.5;exitY=1;exitDx=0;exitDy=0;entryX=0.5;entryY=0;entryDx=0;entryDy=0;fontSize=13;strokeWidth=2;" edge="1" parent="1" source="Euc7uqUimYMy-SIVhz5D-21" target="Euc7uqUimYMy-SIVhz5D-22">
          <mxGeometry relative="1" as="geometry" />
        </mxCell>
        <mxCell id="Euc7uqUimYMy-SIVhz5D-21" value="&lt;b style=&quot;font-size: 13px&quot;&gt;Choose option&lt;br&gt;(1/2/3/4/5)&lt;/b&gt;" style="rhombus;whiteSpace=wrap;html=1;fontSize=15;strokeColor=#000000;strokeWidth=2;fillColor=#fad7ac;" vertex="1" parent="1">
          <mxGeometry x="605" y="550" width="130" height="130" as="geometry" />
        </mxCell>
        <mxCell id="Euc7uqUimYMy-SIVhz5D-22" value="&lt;b style=&quot;font-size: 13px&quot;&gt;1. Deposit Money&lt;br&gt;2. Check current balance&lt;br&gt;3. Transfer money&lt;br&gt;4. Edit account profile&lt;br&gt;5. Customer Logout&lt;/b&gt;" style="rounded=0;whiteSpace=wrap;html=1;fontSize=15;strokeColor=#000000;strokeWidth=2;align=left;fillColor=#fad7ac;" vertex="1" parent="1">
          <mxGeometry x="585" y="720" width="170" height="115" as="geometry" />
        </mxCell>
        <mxCell id="Euc7uqUimYMy-SIVhz5D-23" value="&lt;b&gt;RESULT&lt;/b&gt;" style="rounded=1;whiteSpace=wrap;html=1;fontSize=15;strokeColor=#000000;strokeWidth=2;fillColor=#dae8fc;gradientColor=#7ea6e0;" vertex="1" parent="1">
          <mxGeometry x="330" y="910" width="120" height="60" as="geometry" />
        </mxCell>
        <mxCell id="Euc7uqUimYMy-SIVhz5D-29" value="" style="endArrow=none;html=1;rounded=0;fontSize=13;strokeWidth=2;" edge="1" parent="1">
          <mxGeometry width="50" height="50" relative="1" as="geometry">
            <mxPoint x="230" y="640" as="sourcePoint" />
            <mxPoint x="230" y="100" as="targetPoint" />
          </mxGeometry>
        </mxCell>
        <mxCell id="Euc7uqUimYMy-SIVhz5D-30" value="" style="endArrow=none;html=1;rounded=0;fontSize=13;strokeWidth=2;" edge="1" parent="1">
          <mxGeometry width="50" height="50" relative="1" as="geometry">
            <mxPoint x="50" y="643" as="sourcePoint" />
            <mxPoint x="50" y="99.99996948242188" as="targetPoint" />
          </mxGeometry>
        </mxCell>
        <mxCell id="Euc7uqUimYMy-SIVhz5D-31" value="" style="endArrow=none;html=1;rounded=0;fontSize=13;strokeWidth=2;" edge="1" parent="1">
          <mxGeometry width="50" height="50" relative="1" as="geometry">
            <mxPoint x="50" y="640" as="sourcePoint" />
            <mxPoint x="230" y="640" as="targetPoint" />
          </mxGeometry>
        </mxCell>
        <mxCell id="Euc7uqUimYMy-SIVhz5D-32" value="" style="endArrow=none;html=1;rounded=0;fontSize=13;strokeWidth=2;" edge="1" parent="1">
          <mxGeometry width="50" height="50" relative="1" as="geometry">
            <mxPoint x="50" y="100" as="sourcePoint" />
            <mxPoint x="230" y="100" as="targetPoint" />
          </mxGeometry>
        </mxCell>
        <mxCell id="Euc7uqUimYMy-SIVhz5D-33" value="" style="endArrow=none;html=1;rounded=0;fontSize=12;strokeWidth=2;" edge="1" parent="1">
          <mxGeometry width="50" height="50" relative="1" as="geometry">
            <mxPoint x="560" y="860" as="sourcePoint" />
            <mxPoint x="560" y="100" as="targetPoint" />
          </mxGeometry>
        </mxCell>
        <mxCell id="Euc7uqUimYMy-SIVhz5D-34" value="" style="endArrow=none;html=1;rounded=0;fontSize=12;strokeWidth=2;" edge="1" parent="1">
          <mxGeometry width="50" height="50" relative="1" as="geometry">
            <mxPoint x="780" y="860" as="sourcePoint" />
            <mxPoint x="780" y="100" as="targetPoint" />
          </mxGeometry>
        </mxCell>
        <mxCell id="Euc7uqUimYMy-SIVhz5D-35" value="" style="endArrow=none;html=1;rounded=0;fontSize=12;strokeWidth=2;" edge="1" parent="1">
          <mxGeometry width="50" height="50" relative="1" as="geometry">
            <mxPoint x="560" y="860" as="sourcePoint" />
            <mxPoint x="780" y="860" as="targetPoint" />
          </mxGeometry>
        </mxCell>
        <mxCell id="Euc7uqUimYMy-SIVhz5D-36" value="" style="endArrow=none;html=1;rounded=0;fontSize=12;strokeWidth=2;" edge="1" parent="1">
          <mxGeometry width="50" height="50" relative="1" as="geometry">
            <mxPoint x="560" y="100" as="sourcePoint" />
            <mxPoint x="780" y="100" as="targetPoint" />
          </mxGeometry>
        </mxCell>
        <mxCell id="Euc7uqUimYMy-SIVhz5D-37" value="" style="endArrow=none;html=1;rounded=0;fontSize=12;strokeWidth=2;" edge="1" parent="1">
          <mxGeometry width="50" height="50" relative="1" as="geometry">
            <mxPoint x="130" y="640" as="sourcePoint" />
            <mxPoint x="670" y="860" as="targetPoint" />
            <Array as="points">
              <mxPoint x="130" y="880" />
              <mxPoint x="670" y="880" />
            </Array>
          </mxGeometry>
        </mxCell>
        <mxCell id="Euc7uqUimYMy-SIVhz5D-38" value="" style="endArrow=classic;html=1;rounded=0;fontSize=12;strokeWidth=2;entryX=0.5;entryY=0;entryDx=0;entryDy=0;" edge="1" parent="1" target="Euc7uqUimYMy-SIVhz5D-23">
          <mxGeometry width="50" height="50" relative="1" as="geometry">
            <mxPoint x="390" y="880" as="sourcePoint" />
            <mxPoint x="490" y="780" as="targetPoint" />
          </mxGeometry>
        </mxCell>
        <mxCell id="Euc7uqUimYMy-SIVhz5D-41" value="" style="endArrow=none;html=1;rounded=0;fontSize=12;strokeWidth=2;" edge="1" parent="1">
          <mxGeometry width="50" height="50" relative="1" as="geometry">
            <mxPoint x="800" y="10" as="sourcePoint" />
            <mxPoint x="30" y="10" as="targetPoint" />
          </mxGeometry>
        </mxCell>
        <mxCell id="Euc7uqUimYMy-SIVhz5D-42" value="" style="endArrow=none;html=1;rounded=0;fontSize=12;strokeWidth=2;" edge="1" parent="1">
          <mxGeometry width="50" height="50" relative="1" as="geometry">
            <mxPoint x="30" y="1000" as="sourcePoint" />
            <mxPoint x="30" y="10" as="targetPoint" />
          </mxGeometry>
        </mxCell>
        <mxCell id="Euc7uqUimYMy-SIVhz5D-43" value="" style="endArrow=none;html=1;rounded=0;fontSize=12;strokeWidth=2;" edge="1" parent="1">
          <mxGeometry width="50" height="50" relative="1" as="geometry">
            <mxPoint x="799.9999999999998" y="1000" as="sourcePoint" />
            <mxPoint x="799.9999999999998" y="10" as="targetPoint" />
          </mxGeometry>
        </mxCell>
        <mxCell id="Euc7uqUimYMy-SIVhz5D-44" value="" style="endArrow=none;html=1;rounded=0;fontSize=12;strokeWidth=2;" edge="1" parent="1">
          <mxGeometry width="50" height="50" relative="1" as="geometry">
            <mxPoint x="30" y="1000" as="sourcePoint" />
            <mxPoint x="800" y="1000" as="targetPoint" />
          </mxGeometry>
        </mxCell>
      </root>
    </mxGraphModel>
  </diagram>
</mxfile>
